<svg id="圖層_1" data-name="圖層 1" xmlns="http://www.w3.org/2000/svg" viewBox="0 0 432.62 270.36"><defs><style>.cls-1{fill:#202020;}.cls-2{fill:#c9ae93;}.cls-3{fill:#fff;}</style></defs><title>LOGO2</title><path class="cls-1" d="M945,653.17c-10.25-23.74,18.63-80.25,56.73-96.72s63.49,3.71,63.49,3.71c3.32-4.13,22.59-47.59,25.55-73.55,3.37-29.6-1.06-57.92-11.38-82H874.85a161.9,161.9,0,0,0-16.94,56.06c-.57,5-2.44,19.73-2.22,24.14,0,0,31.86-11.25,50.95,29.22s-1.26,84-1.26,84c-27.31,45.55-81.31,15.51-81.49,6.5-35.83-1.84-38.37-57.13-30.15-77.52a206,206,0,0,0,20.92-30.51,184.32,184.32,0,0,1,.39-30.41,180.71,180.71,0,0,1,17.11-61.51H744V675H967.76C960,671.89,951.76,665.54,945,653.17Z" transform="translate(-743.95 -404.59)"/><path class="cls-1" d="M1176.57,404.59h-60.84A178.55,178.55,0,0,1,1131,496.32c-3.67,38.42-20.72,71.26-41.77,99.21,3.49,30,4.62,24.82,0,33.33-12.45,22.49-25,36.89-36.3,46.09h123.65Z" transform="translate(-743.95 -404.59)"/><ellipse class="cls-1" cx="133.21" cy="149.73" rx="26.63" ry="56.71"/><path class="cls-2" d="M980.62,590.2c-14,15.41-23.21,31.7-25.66,43.62a30.16,30.16,0,0,0-.63,4.75c-.21,4.47.85,8,3.32,10.27,9.16,8.3,34.28-4.49,56.13-28.58s32.12-50.34,23-58.64S1002.46,566.11,980.62,590.2Z" transform="translate(-743.95 -404.59)"/><path class="cls-3" d="M1030.84,568.11c-4.51-3.2-13-1.09-23.36,5.81-13.13,8.76-26.06,24.59-28.81,35.29-1.26,4.87.29,7.18,1.81,8.25,3.17,2.25,8.74.94,15.69-3.7,8.67-5.78,16.88-15.87,18.71-23,.94-3.66-.48-5.32-1.41-6-2.27-1.61-6.1-.77-10.79,2.36-5.66,3.78-11,10.4-12.24,15.08-.7,2.73.42,4,1.16,4.53,1.19.84,3.48,1.27,7.64-1.5,3.74-2.5,7.3-6.91,8.11-10A1.82,1.82,0,0,0,1006,593a1.79,1.79,0,0,0-2.21,1.31c-.52,2-3.36,5.74-6.61,7.91a8.1,8.1,0,0,1-3.36,1.52,2.58,2.58,0,0,1,.1-.61c1-3.8,5.89-9.73,10.74-13,3.92-2.62,6.18-2.76,6.66-2.42.18.12.33.8,0,2.1-1.58,6.14-9.46,15.68-17.21,20.85-6,4-10.13,4.78-11.56,3.77-.82-.59-1-2.18-.4-4.39,2.57-10,14.81-24.83,27.31-33.16,10.46-7,16.9-7.53,19.23-5.87s1.6,5.66,1,7.94c-4,15.76-23.38,39.27-43.08,52.41-14,9.36-26,12.87-31.21,9.16-3.82-2.71-3.19-8.83-2-13.5a1.82,1.82,0,1,0-3.52-.9c-2.69,10.45.36,15.21,3.4,17.37a12.81,12.81,0,0,0,7.57,2.11c7.07,0,16.71-3.83,27.77-11.21,20.34-13.56,40.34-38,44.59-54.54C1035.08,572.87,1033,569.61,1030.84,568.11Z" transform="translate(-743.95 -404.59)"/></svg>